<svg version="1.1" id="Layer_1" xmlns="http://www.w3.org/2000/svg" xmlns:xlink="http://www.w3.org/1999/xlink" x="0px" y="0px"
	 width="100%" viewBox="0 0 1024 1024" enable-background="new 0 0 1024 1024" xml:space="preserve">
<path fill="#0d6dfb" opacity="1.000000" stroke="none" 
	d="
M546.999878,849.387695 
	C462.018036,849.380249 377.536224,849.398621 293.054382,849.349365 
	C268.102173,849.334839 248.885895,833.548950 244.229584,809.190308 
	C242.387573,799.554260 244.502991,789.926208 245.225250,780.326416 
	C246.548172,762.742859 248.217010,745.185486 249.702621,727.613892 
	C251.637177,704.732178 253.561996,681.849609 255.437622,658.963013 
	C256.905548,641.051208 258.236725,623.128174 259.729156,605.218506 
	C261.580383,583.002869 263.573425,560.798950 265.433411,538.583984 
	C266.919189,520.838867 268.269196,503.082428 269.730682,485.335205 
	C271.588013,462.780823 273.515625,440.232239 275.377838,417.678253 
	C276.843018,399.932617 278.232391,382.180725 279.697510,364.435089 
	C281.025604,348.349884 282.091461,332.234070 283.867615,316.197601 
	C285.385223,302.495209 297.523193,292.883179 312.497223,292.709595 
	C338.317352,292.410278 364.138092,292.163544 389.958496,291.885529 
	C396.693359,291.813019 396.589417,291.795258 396.730682,284.869751 
	C397.066315,268.413269 395.697632,251.918884 398.646545,235.527267 
	C407.789062,184.707443 449.254791,145.144547 498.672516,139.571960 
	C532.985901,135.702591 563.507446,144.251022 589.059448,167.947784 
	C610.747070,188.060745 622.332947,213.271286 625.335266,242.607712 
	C626.765320,256.581268 626.013367,270.574524 625.997131,284.552826 
	C625.991089,289.733154 627.680359,291.000336 632.620178,290.959869 
	C657.612732,290.755096 682.608215,290.836884 707.602356,290.928680 
	C727.113281,291.000336 736.627075,299.484009 739.125671,318.894775 
	C744.795349,362.941284 750.454895,406.989197 756.073547,451.042236 
	C761.756897,495.603088 767.400635,540.169006 773.034607,584.736145 
	C777.728271,621.865051 782.373718,658.999939 787.057190,696.130127 
	C791.052795,727.806885 795.067017,759.481323 799.083008,791.155457 
	C801.310547,808.723511 794.325745,820.179199 777.667908,825.778687 
	C756.679199,832.834167 735.626770,839.699829 714.621643,846.706848 
	C708.872925,848.624573 703.045471,849.458679 696.964783,849.447510 
	C647.143311,849.355774 597.321594,849.390869 546.999878,849.387695 
M596.500000,824.762390 
	C625.329895,824.759521 654.159729,824.773376 682.989624,824.744080 
	C692.135315,824.734741 696.697998,821.005981 699.014648,812.147278 
	C699.837646,809.000305 699.688660,805.862000 699.581787,802.714966 
	C699.050781,787.070496 698.384644,771.430481 697.884277,755.785095 
	C697.197571,734.310669 696.643738,712.832092 695.984741,691.356689 
	C694.983521,658.729187 693.948730,626.102783 692.913452,593.476318 
	C692.279663,573.500977 691.626709,553.526062 690.967346,533.551514 
	C689.615845,492.605988 688.244751,451.661163 686.899719,410.715454 
	C685.915588,380.754211 684.866638,350.794464 684.088623,320.827759 
	C683.966492,316.123383 682.203979,314.894226 677.826172,314.952362 
	C662.663269,315.153870 647.493835,315.216736 632.332458,314.977509 
	C627.568542,314.902344 625.944031,316.343811 626.017090,321.198029 
	C626.260010,337.359558 626.184814,353.527954 626.051880,369.692230 
	C625.978516,378.611664 620.737549,384.244324 612.942261,384.273376 
	C604.931763,384.303284 599.694946,378.503998 599.676208,369.472107 
	C599.642639,353.306824 599.519958,337.139587 599.738647,320.977295 
	C599.800781,316.381531 598.287964,314.950317 593.717407,314.970245 
	C538.889587,315.209656 484.061066,315.326111 429.232697,315.322235 
	C424.723633,315.321930 423.096710,316.604401 423.167114,321.285553 
	C423.410187,337.447235 423.247833,353.614838 423.268280,369.780151 
	C423.274841,374.956146 421.595184,379.298920 417.080017,382.131683 
	C407.894226,387.894745 396.898834,381.580048 396.774353,370.299652 
	C396.597839,354.302856 396.514740,338.298676 396.832977,322.306427 
	C396.936859,317.087097 395.145203,315.550720 390.221344,315.926819 
	C385.247955,316.306732 380.229065,316.111603 375.229950,316.129364 
	C355.231995,316.200348 335.233887,316.231415 315.236084,316.332611 
	C309.234131,316.363007 307.558075,318.097656 307.300354,324.021698 
	C307.177307,326.849274 306.992981,329.675720 306.765198,332.496918 
	C304.609192,359.200745 302.445953,385.903961 300.267975,412.605988 
	C298.793304,430.685577 297.307922,448.764343 295.797760,466.841003 
	C293.969269,488.728027 292.099365,510.611633 290.266571,532.498291 
	C288.794556,550.077087 287.389648,567.661499 285.885071,585.237427 
	C284.054321,606.623657 282.087952,627.998413 280.294952,649.387756 
	C278.390106,672.111572 276.644043,694.848694 274.784180,717.576294 
	C272.612335,744.116394 270.697632,770.682556 268.082947,797.179443 
	C266.418243,814.049316 279.100555,824.975708 294.525055,824.933044 
	C394.849426,824.655579 495.174896,824.773804 596.500000,824.762390 
M423.746552,290.626099 
	C425.361237,292.357605 427.488434,291.743347 429.405884,291.734619 
	C484.192383,291.485931 538.978699,291.194427 593.765076,290.907776 
	C594.597534,290.903442 595.429871,290.858643 596.262268,290.857727 
	C598.479675,290.855316 599.700928,289.859680 599.643677,287.537933 
	C599.221924,270.426697 600.986206,253.237854 597.622620,236.232437 
	C590.230408,198.858658 559.333862,170.180252 522.301575,166.401764 
	C476.760406,161.755096 434.939972,192.177231 425.349030,237.052094 
	C421.618500,254.506836 423.644043,272.214447 423.746552,290.626099 
M744.744080,554.537720 
	C744.398071,551.899597 744.041382,549.262756 743.707764,546.623108 
	C739.597290,514.097473 735.507751,481.569214 731.377197,449.046173 
	C727.163696,415.869049 722.907959,382.697357 718.676880,349.522491 
	C717.371704,339.289215 716.085327,329.053619 714.794800,318.818512 
	C714.497742,316.462616 713.178162,315.172150 710.801941,315.257751 
	C708.059692,315.356506 708.313538,317.521851 708.362427,319.307556 
	C708.499084,324.300812 708.797852,329.289459 708.955750,334.282349 
	C710.372437,379.064484 711.745239,423.848053 713.187744,468.629333 
	C714.067200,495.929871 715.075378,523.226196 715.974060,550.526184 
	C717.409912,594.144531 718.807983,637.764160 720.211304,681.383606 
	C720.875488,702.027100 721.569214,722.670044 722.105042,743.316956 
	C722.183105,746.323853 723.317993,748.239624 725.666016,749.950134 
	C734.150940,756.131042 742.522827,762.466797 750.959961,768.713623 
	C758.275879,774.130310 765.622375,779.505737 773.023743,784.949707 
	C774.337097,783.006287 773.742981,781.315918 773.553833,779.764526 
	C771.922119,766.382629 770.201050,753.011597 768.490540,739.639343 
	C763.232361,698.532959 757.977173,657.426270 752.700317,616.322266 
	C750.093994,596.020630 747.442810,575.724792 744.744080,554.537720 
M760.987244,805.396606 
	C762.579529,804.146545 761.347229,803.404663 760.434082,802.746582 
	C748.684509,794.280151 736.920349,785.833923 725.136108,777.415771 
	C724.808411,777.181702 724.217041,777.316528 723.488037,777.258667 
	C723.488037,790.480408 723.488037,803.547607 723.488037,817.573242 
	C736.152161,813.498291 748.289062,809.592957 760.987244,805.396606 
z"/>
<path fill="#0d6dfb" opacity="1.000000" stroke="none" 
	d="
M412.717590,653.313110 
	C395.627136,637.743469 383.540771,619.231628 375.634979,597.954224 
	C372.605194,589.799927 374.932251,583.676208 381.817749,581.024780 
	C388.469727,578.463318 394.449890,581.891174 397.617126,589.765198 
	C410.381622,621.498535 431.360870,645.171570 464.766052,655.582703 
	C505.448181,668.261780 549.344238,651.756470 573.553223,615.487671 
	C579.032166,607.279419 583.565857,598.614319 586.937439,589.326294 
	C589.634583,581.896057 596.051514,578.511047 602.556213,580.903137 
	C609.102051,583.310364 611.998962,590.012878 609.218567,597.385071 
	C594.489319,636.440125 568.867188,665.155151 528.539246,678.198547 
	C487.963470,691.322144 450.698212,683.213623 417.230255,657.038147 
	C415.787872,655.910034 414.400757,654.711121 412.717590,653.313110 
z"/>
<path fill="#0d6dfb" opacity="1.000000" stroke="none" 
	d="
M543.317261,525.512573 
	C533.351196,525.930237 529.163208,520.819031 530.593811,510.529907 
	C534.850220,479.917267 567.878540,464.378784 594.181580,480.697815 
	C606.139160,488.116516 611.915771,499.376862 613.107544,513.083069 
	C613.715210,520.072266 609.517883,524.906189 602.979492,525.570007 
	C596.681763,526.209473 591.698181,521.888489 590.835327,515.040527 
	C589.355530,503.296875 582.571228,496.982574 571.532532,497.074982 
	C560.290955,497.169067 553.560486,503.455322 552.310852,515.163696 
	C551.733093,520.576477 549.116760,524.145752 543.317261,525.512573 
z"/>
<path fill="#0d6dfb" opacity="1.000000" stroke="none" 
	d="
M397.402588,478.207397 
	C425.539581,466.721680 452.548553,481.939606 456.922302,511.378082 
	C458.016571,518.743469 454.227936,524.518494 447.674133,525.474854 
	C440.603394,526.506714 435.700256,522.302856 434.729370,514.376160 
	C433.373108,503.302917 426.280945,496.976196 415.344604,497.083496 
	C404.252014,497.192352 397.506134,503.393158 396.236938,514.647339 
	C395.378845,522.256226 390.455170,526.562683 383.648560,525.657532 
	C376.741974,524.739136 373.155945,518.968140 374.221405,511.307831 
	C376.292114,496.420410 383.363770,485.137054 397.402588,478.207397 
z"/>
</svg>